<svg id="visual" viewBox="0 0 960 540" width="960" height="540" xmlns="http://www.w3.org/2000/svg" xmlns:xlink="http://www.w3.org/1999/xlink" version="1.1"><rect x="0" y="0" width="960" height="540" fill="#ffffff"></rect><g fill="none" stroke="#4FACF7" stroke-width="5"><circle r="49" cx="443" cy="26"></circle><circle r="8" cx="114" cy="7"></circle><circle r="18" cx="16" cy="251"></circle><circle r="44" cx="880" cy="141"></circle><circle r="30" cx="411" cy="163"></circle><circle r="23" cx="848" cy="416"></circle><circle r="43" cx="784" cy="510"></circle><circle r="17" cx="769" cy="154"></circle><circle r="27" cx="657" cy="132"></circle><circle r="35" cx="621" cy="320"></circle><circle r="40" cx="373" cy="503"></circle><circle r="47" cx="391" cy="294"></circle><circle r="17" cx="236" cy="58"></circle><circle r="24" cx="847" cy="294"></circle><circle r="32" cx="907" cy="522"></circle><circle r="47" cx="187" cy="304"></circle><circle r="46" cx="617" cy="537"></circle><circle r="16" cx="786" cy="51"></circle><circle r="25" cx="20" cy="373"></circle><circle r="12" cx="538" cy="74"></circle><circle r="25" cx="955" cy="24"></circle><circle r="14" cx="519" cy="287"></circle><circle r="35" cx="724" cy="399"></circle><circle r="20" cx="677" cy="19"></circle><circle r="15" cx="120" cy="431"></circle><circle r="38" cx="234" cy="203"></circle><circle r="20" cx="322" cy="398"></circle><circle r="46" cx="725" cy="257"></circle><circle r="11" cx="17" cy="145"></circle><circle r="20" cx="202" cy="530"></circle><circle r="18" cx="475" cy="479"></circle><circle r="15" cx="528" cy="177"></circle><circle r="32" cx="339" cy="2"></circle><circle r="32" cx="312" cy="126"></circle><circle r="22" cx="142" cy="118"></circle><circle r="14" cx="574" cy="414"></circle><circle r="45" cx="437" cy="386"></circle><circle r="25" cx="951" cy="241"></circle><circle r="22" cx="944" cy="375"></circle><circle r="17" cx="18" cy="539"></circle><circle r="11" cx="13" cy="34"></circle><circle r="16" cx="224" cy="429"></circle><circle r="32" cx="112" cy="220"></circle></g></svg>