<svg id="visual" viewBox="0 0 900 600" width="900" height="600" xmlns="http://www.w3.org/2000/svg" xmlns:xlink="http://www.w3.org/1999/xlink" version="1.1"><g stroke-width="1" stroke-linejoin="bevel"><path d="M455.8 322.3L470.3 335.8L494.3 298.7Z" fill="#d1d1d1" stroke="#d1d1d1"></path><path d="M470.3 335.8L517.3 345.3L494.3 298.7Z" fill="#f5f5f5" stroke="#f5f5f5"></path><path d="M470.3 335.8L505.5 361.8L517.3 345.3Z" fill="#cccccc" stroke="#cccccc"></path><path d="M430.8 394.8L470 380.4L470.3 335.8Z" fill="#eaeaea" stroke="#eaeaea"></path><path d="M470.3 335.8L470 380.4L505.5 361.8Z" fill="#eaeaea" stroke="#eaeaea"></path><path d="M470 380.4L491 383.3L505.5 361.8Z" fill="#f5f5f5" stroke="#f5f5f5"></path><path d="M505.5 361.8L541.3 383.4L517.3 345.3Z" fill="#efefef" stroke="#efefef"></path><path d="M512.5 432.9L507.5 388.3L491 383.3Z" fill="#e0e0e0" stroke="#e0e0e0"></path><path d="M491 383.3L507.5 388.3L505.5 361.8Z" fill="#e5e5e5" stroke="#e5e5e5"></path><path d="M400.5 263.3L395.8 307.7L455.8 322.3Z" fill="#ffffff" stroke="#ffffff"></path><path d="M455.8 322.3L430.8 394.8L470.3 335.8Z" fill="#e5e5e5" stroke="#e5e5e5"></path><path d="M494.3 298.7L400.5 263.3L455.8 322.3Z" fill="#ffffff" stroke="#ffffff"></path><path d="M395.8 307.7L430.8 394.8L455.8 322.3Z" fill="#efefef" stroke="#efefef"></path><path d="M470 380.4L455 429.8L491 383.3Z" fill="#cccccc" stroke="#cccccc"></path><path d="M574.5 296.7L499.3 223.2L494.3 298.7Z" fill="#d6d6d6" stroke="#d6d6d6"></path><path d="M494.3 298.7L469 213.7L400.5 263.3Z" fill="#f5f5f5" stroke="#f5f5f5"></path><path d="M507.5 388.3L541.3 383.4L505.5 361.8Z" fill="#eaeaea" stroke="#eaeaea"></path><path d="M517.3 345.3L574.5 296.7L494.3 298.7Z" fill="#efefef" stroke="#efefef"></path><path d="M541.3 383.4L574.5 296.7L517.3 345.3Z" fill="#dbdbdb" stroke="#dbdbdb"></path><path d="M499.3 223.2L469 213.7L494.3 298.7Z" fill="#e0e0e0" stroke="#e0e0e0"></path><path d="M469 213.7L440 209.6L400.5 263.3Z" fill="#eaeaea" stroke="#eaeaea"></path><path d="M627 281.7L585.8 273.7L574.5 296.7Z" fill="#e5e5e5" stroke="#e5e5e5"></path><path d="M574.5 296.7L585.8 273.7L499.3 223.2Z" fill="#d1d1d1" stroke="#d1d1d1"></path><path d="M430.8 394.8L455 429.8L470 380.4Z" fill="#efefef" stroke="#efefef"></path><path d="M507.5 388.3L512.5 432.9L541.3 383.4Z" fill="#d1d1d1" stroke="#d1d1d1"></path><path d="M455 429.8L512.5 432.9L491 383.3Z" fill="#dbdbdb" stroke="#dbdbdb"></path><path d="M440 209.6L369.5 246.7L400.5 263.3Z" fill="#dbdbdb" stroke="#dbdbdb"></path><path d="M400.5 263.3L345.8 271.2L395.8 307.7Z" fill="#eaeaea" stroke="#eaeaea"></path><path d="M395.8 307.7L323.3 393.8L430.8 394.8Z" fill="#fafafa" stroke="#fafafa"></path><path d="M499.3 223.2L471 182.2L469 213.7Z" fill="#f5f5f5" stroke="#f5f5f5"></path><path d="M469 213.7L471 182.2L440 209.6Z" fill="#efefef" stroke="#efefef"></path><path d="M440 209.6L329.3 185.2L369.5 246.7Z" fill="#eaeaea" stroke="#eaeaea"></path><path d="M483.3 163.1L471 182.2L499.3 223.2Z" fill="#e5e5e5" stroke="#e5e5e5"></path><path d="M369.5 246.7L345.8 271.2L400.5 263.3Z" fill="#fafafa" stroke="#fafafa"></path><path d="M345.8 271.2L338.3 281.3L395.8 307.7Z" fill="#cccccc" stroke="#cccccc"></path><path d="M430.8 394.8L423.8 450.4L455 429.8Z" fill="#f5f5f5" stroke="#f5f5f5"></path><path d="M585.8 273.7L550.5 189.2L499.3 223.2Z" fill="#d6d6d6" stroke="#d6d6d6"></path><path d="M323.3 393.8L423.8 450.4L430.8 394.8Z" fill="#e5e5e5" stroke="#e5e5e5"></path><path d="M455 429.8L476.3 512.9L512.5 432.9Z" fill="#e5e5e5" stroke="#e5e5e5"></path><path d="M512.5 432.9L566.5 432.4L541.3 383.4Z" fill="#eaeaea" stroke="#eaeaea"></path><path d="M541.3 383.4L614.8 393.8L574.5 296.7Z" fill="#dbdbdb" stroke="#dbdbdb"></path><path d="M476.3 512.9L566.5 432.4L512.5 432.9Z" fill="#efefef" stroke="#efefef"></path><path d="M566.5 432.4L581.8 420.4L541.3 383.4Z" fill="#ffffff" stroke="#ffffff"></path><path d="M550.5 189.2L483.3 163.1L499.3 223.2Z" fill="#cccccc" stroke="#cccccc"></path><path d="M471 182.2L442 167.1L440 209.6Z" fill="#fafafa" stroke="#fafafa"></path><path d="M448.8 161.6L442 167.1L471 182.2Z" fill="#dbdbdb" stroke="#dbdbdb"></path><path d="M304.5 212.6L293.5 242.2L345.8 271.2Z" fill="#eaeaea" stroke="#eaeaea"></path><path d="M614.8 393.8L627 281.7L574.5 296.7Z" fill="#ffffff" stroke="#ffffff"></path><path d="M585.8 273.7L620.8 200.6L550.5 189.2Z" fill="#ffffff" stroke="#ffffff"></path><path d="M483.3 163.1L448.8 161.6L471 182.2Z" fill="#eaeaea" stroke="#eaeaea"></path><path d="M581.8 420.4L614.8 393.8L541.3 383.4Z" fill="#cccccc" stroke="#cccccc"></path><path d="M620.8 200.6L557.3 161.6L550.5 189.2Z" fill="#eaeaea" stroke="#eaeaea"></path><path d="M550.5 189.2L557.3 161.6L483.3 163.1Z" fill="#f5f5f5" stroke="#f5f5f5"></path><path d="M478.3 50.5L420.8 66.1L448.8 161.6Z" fill="#d6d6d6" stroke="#d6d6d6"></path><path d="M338.3 281.3L323.3 393.8L395.8 307.7Z" fill="#e5e5e5" stroke="#e5e5e5"></path><path d="M627 281.7L620.8 200.6L585.8 273.7Z" fill="#f5f5f5" stroke="#f5f5f5"></path><path d="M263.3 297.7L285.5 336.8L338.3 281.3Z" fill="#e5e5e5" stroke="#e5e5e5"></path><path d="M338.3 281.3L285.5 336.8L323.3 393.8Z" fill="#fafafa" stroke="#fafafa"></path><path d="M587.5 129.6L564.5 140.1L557.3 161.6Z" fill="#ffffff" stroke="#ffffff"></path><path d="M557.3 161.6L564.5 140.1L483.3 163.1Z" fill="#f5f5f5" stroke="#f5f5f5"></path><path d="M340.8 110.5L329.3 185.2L442 167.1Z" fill="#dbdbdb" stroke="#dbdbdb"></path><path d="M442 167.1L329.3 185.2L440 209.6Z" fill="#e0e0e0" stroke="#e0e0e0"></path><path d="M345.8 271.2L293.5 242.2L338.3 281.3Z" fill="#e5e5e5" stroke="#e5e5e5"></path><path d="M304.5 212.6L345.8 271.2L369.5 246.7Z" fill="#cccccc" stroke="#cccccc"></path><path d="M614.8 393.8L674.8 319.3L627 281.7Z" fill="#ffffff" stroke="#ffffff"></path><path d="M686 249.2L652.8 193.2L620.8 200.6Z" fill="#cccccc" stroke="#cccccc"></path><path d="M444 512.9L476.3 512.9L423.8 450.4Z" fill="#e0e0e0" stroke="#e0e0e0"></path><path d="M423.8 450.4L476.3 512.9L455 429.8Z" fill="#cccccc" stroke="#cccccc"></path><path d="M654.8 443.9L614.8 393.8L581.8 420.4Z" fill="#e5e5e5" stroke="#e5e5e5"></path><path d="M675.3 440.8L680 360.3L614.8 393.8Z" fill="#e5e5e5" stroke="#e5e5e5"></path><path d="M329.3 185.2L304.5 212.6L369.5 246.7Z" fill="#e5e5e5" stroke="#e5e5e5"></path><path d="M425.8 524.5L444 512.9L423.8 450.4Z" fill="#dbdbdb" stroke="#dbdbdb"></path><path d="M362.8 495.9L370.5 489.9L304.3 475.4Z" fill="#f5f5f5" stroke="#f5f5f5"></path><path d="M323.3 393.8L370.5 489.9L423.8 450.4Z" fill="#d6d6d6" stroke="#d6d6d6"></path><path d="M654.8 443.9L581.8 420.4L566.5 432.4Z" fill="#fafafa" stroke="#fafafa"></path><path d="M614.8 393.8L680 360.3L674.8 319.3Z" fill="#e0e0e0" stroke="#e0e0e0"></path><path d="M329.3 185.2L303.3 192.6L304.5 212.6Z" fill="#e0e0e0" stroke="#e0e0e0"></path><path d="M304.5 212.6L249 228.6L293.5 242.2Z" fill="#efefef" stroke="#efefef"></path><path d="M686 249.2L620.8 200.6L627 281.7Z" fill="#fafafa" stroke="#fafafa"></path><path d="M620.8 200.6L587.5 129.6L557.3 161.6Z" fill="#fafafa" stroke="#fafafa"></path><path d="M249 228.6L263.3 297.7L293.5 242.2Z" fill="#e0e0e0" stroke="#e0e0e0"></path><path d="M293.5 242.2L263.3 297.7L338.3 281.3Z" fill="#e5e5e5" stroke="#e5e5e5"></path><path d="M304.3 475.4L370.5 489.9L323.3 393.8Z" fill="#fafafa" stroke="#fafafa"></path><path d="M620.8 136.1L587.5 129.6L620.8 200.6Z" fill="#e0e0e0" stroke="#e0e0e0"></path><path d="M420.8 66.1L442 167.1L448.8 161.6Z" fill="#e5e5e5" stroke="#e5e5e5"></path><path d="M420.8 66.1L340.8 110.5L442 167.1Z" fill="#cccccc" stroke="#cccccc"></path><path d="M283.5 420.4L323.3 393.8L261 371.8Z" fill="#d1d1d1" stroke="#d1d1d1"></path><path d="M370.5 489.9L425.8 524.5L423.8 450.4Z" fill="#cccccc" stroke="#cccccc"></path><path d="M444 512.9L449 567.5L476.3 512.9Z" fill="#dbdbdb" stroke="#dbdbdb"></path><path d="M362.8 495.9L425.8 524.5L370.5 489.9Z" fill="#efefef" stroke="#efefef"></path><path d="M721.5 296.7L686 249.2L674.8 319.3Z" fill="#dbdbdb" stroke="#dbdbdb"></path><path d="M674.8 319.3L686 249.2L627 281.7Z" fill="#efefef" stroke="#efefef"></path><path d="M667 452.4L654.8 443.9L666 537.9Z" fill="#ffffff" stroke="#ffffff"></path><path d="M261 371.8L323.3 393.8L285.5 336.8Z" fill="#fafafa" stroke="#fafafa"></path><path d="M241 360.3L261 371.8L285.5 336.8Z" fill="#d6d6d6" stroke="#d6d6d6"></path><path d="M674 148.1L620.8 136.1L652.8 193.2Z" fill="#cccccc" stroke="#cccccc"></path><path d="M652.8 193.2L620.8 136.1L620.8 200.6Z" fill="#cccccc" stroke="#cccccc"></path><path d="M666 537.9L654.8 443.9L566.5 432.4Z" fill="#e0e0e0" stroke="#e0e0e0"></path><path d="M654.8 443.9L675.3 440.8L614.8 393.8Z" fill="#d1d1d1" stroke="#d1d1d1"></path><path d="M667 452.4L675.3 440.8L654.8 443.9Z" fill="#e5e5e5" stroke="#e5e5e5"></path><path d="M244.3 455.9L304.3 475.4L283.5 420.4Z" fill="#dbdbdb" stroke="#dbdbdb"></path><path d="M283.5 420.4L304.3 475.4L323.3 393.8Z" fill="#d6d6d6" stroke="#d6d6d6"></path><path d="M349.5 600L449 567.5L425.8 524.5Z" fill="#d1d1d1" stroke="#d1d1d1"></path><path d="M263.3 297.7L241 360.3L285.5 336.8Z" fill="#ffffff" stroke="#ffffff"></path><path d="M201.8 425.4L244.3 455.9L283.5 420.4Z" fill="#fafafa" stroke="#fafafa"></path><path d="M303.3 192.6L249 228.6L304.5 212.6Z" fill="#d1d1d1" stroke="#d1d1d1"></path><path d="M263.3 297.7L163.8 270.2L241 360.3Z" fill="#dbdbdb" stroke="#dbdbdb"></path><path d="M448.8 161.6L483.3 163.1L478.3 50.5Z" fill="#ffffff" stroke="#ffffff"></path><path d="M329.3 185.2L340.8 110.5L303.3 192.6Z" fill="#e0e0e0" stroke="#e0e0e0"></path><path d="M303.3 192.6L228.3 118.1L249 228.6Z" fill="#d1d1d1" stroke="#d1d1d1"></path><path d="M740.5 341.3L674.8 319.3L680 360.3Z" fill="#fafafa" stroke="#fafafa"></path><path d="M740.5 341.3L721.5 296.7L674.8 319.3Z" fill="#f5f5f5" stroke="#f5f5f5"></path><path d="M730.5 212.6L674 148.1L652.8 193.2Z" fill="#cccccc" stroke="#cccccc"></path><path d="M478.3 50.5L564.5 140.1L587.5 129.6Z" fill="#eaeaea" stroke="#eaeaea"></path><path d="M478.3 50.5L483.3 163.1L564.5 140.1Z" fill="#eaeaea" stroke="#eaeaea"></path><path d="M425.8 524.5L449 567.5L444 512.9Z" fill="#eaeaea" stroke="#eaeaea"></path><path d="M476.3 512.9L557.5 562.5L566.5 432.4Z" fill="#d1d1d1" stroke="#d1d1d1"></path><path d="M454.8 600L449 567.5L349.5 600Z" fill="#fafafa" stroke="#fafafa"></path><path d="M736.3 447.4L711 417.8L675.3 440.8Z" fill="#d1d1d1" stroke="#d1d1d1"></path><path d="M675.3 440.8L711 417.8L680 360.3Z" fill="#e0e0e0" stroke="#e0e0e0"></path><path d="M675 145.6L674 148.1L730.5 212.6Z" fill="#e0e0e0" stroke="#e0e0e0"></path><path d="M526.3 0L478.3 50.5L587.5 129.6Z" fill="#cccccc" stroke="#cccccc"></path><path d="M730.5 212.6L652.8 193.2L686 249.2Z" fill="#d6d6d6" stroke="#d6d6d6"></path><path d="M674 148.1L675 145.6L620.8 136.1Z" fill="#eaeaea" stroke="#eaeaea"></path><path d="M519.5 600L557.5 562.5L476.3 512.9Z" fill="#d6d6d6" stroke="#d6d6d6"></path><path d="M736.3 447.4L731.5 404.4L711 417.8Z" fill="#ffffff" stroke="#ffffff"></path><path d="M170 236.2L225 244.7L159.8 225.7Z" fill="#fafafa" stroke="#fafafa"></path><path d="M249 228.6L225 244.7L263.3 297.7Z" fill="#eaeaea" stroke="#eaeaea"></path><path d="M624.5 68.5L587.5 129.6L620.8 136.1Z" fill="#efefef" stroke="#efefef"></path><path d="M731.5 404.4L740.5 341.3L680 360.3Z" fill="#cccccc" stroke="#cccccc"></path><path d="M761.3 267.2L730.5 212.6L686 249.2Z" fill="#efefef" stroke="#efefef"></path><path d="M736.3 447.4L675.3 440.8L667 452.4Z" fill="#eaeaea" stroke="#eaeaea"></path><path d="M711 417.8L731.5 404.4L680 360.3Z" fill="#d6d6d6" stroke="#d6d6d6"></path><path d="M219 456.9L244.3 455.9L201.8 425.4Z" fill="#dbdbdb" stroke="#dbdbdb"></path><path d="M349.5 600L425.8 524.5L362.8 495.9Z" fill="#ffffff" stroke="#ffffff"></path><path d="M283.5 420.4L261 371.8L201.8 425.4Z" fill="#fafafa" stroke="#fafafa"></path><path d="M761.3 267.2L686 249.2L721.5 296.7Z" fill="#ffffff" stroke="#ffffff"></path><path d="M648 70.5L650.8 94.5L782.3 103.5Z" fill="#d6d6d6" stroke="#d6d6d6"></path><path d="M675 145.6L650.8 94.5L620.8 136.1Z" fill="#fafafa" stroke="#fafafa"></path><path d="M420.8 66.1L375.5 49.5L340.8 110.5Z" fill="#f5f5f5" stroke="#f5f5f5"></path><path d="M340.8 110.5L295.5 80.1L303.3 192.6Z" fill="#dbdbdb" stroke="#dbdbdb"></path><path d="M402 3.5L375.5 49.5L420.8 66.1Z" fill="#e5e5e5" stroke="#e5e5e5"></path><path d="M454.8 600L481 600L449 567.5Z" fill="#fafafa" stroke="#fafafa"></path><path d="M449 567.5L496.3 600L476.3 512.9Z" fill="#eaeaea" stroke="#eaeaea"></path><path d="M650.8 94.5L624.5 68.5L620.8 136.1Z" fill="#d1d1d1" stroke="#d1d1d1"></path><path d="M481 600L496.3 600L449 567.5Z" fill="#cccccc" stroke="#cccccc"></path><path d="M300.5 567.5L362.8 495.9L304.3 475.4Z" fill="#dbdbdb" stroke="#dbdbdb"></path><path d="M785.8 286.3L761.3 267.2L721.5 296.7Z" fill="#dbdbdb" stroke="#dbdbdb"></path><path d="M785.8 286.3L721.5 296.7L740.5 341.3Z" fill="#e0e0e0" stroke="#e0e0e0"></path><path d="M496.3 600L519.5 600L476.3 512.9Z" fill="#fafafa" stroke="#fafafa"></path><path d="M666 537.9L736.3 447.4L667 452.4Z" fill="#efefef" stroke="#efefef"></path><path d="M666 537.9L566.5 432.4L557.5 562.5Z" fill="#e5e5e5" stroke="#e5e5e5"></path><path d="M834.5 398.8L785.8 286.3L740.5 341.3Z" fill="#efefef" stroke="#efefef"></path><path d="M615.8 600L666 537.9L557.5 562.5Z" fill="#ffffff" stroke="#ffffff"></path><path d="M481 600L465.3 608.5L496.3 600Z" fill="#cccccc" stroke="#cccccc"></path><path d="M496.3 600L465.3 608.5L519.5 600Z" fill="#cccccc" stroke="#cccccc"></path><path d="M454.8 600L465.3 608.5L481 600Z" fill="#d6d6d6" stroke="#d6d6d6"></path><path d="M349.5 600L465.3 608.5L454.8 600Z" fill="#f5f5f5" stroke="#f5f5f5"></path><path d="M201.8 425.4L261 371.8L241 360.3Z" fill="#d6d6d6" stroke="#d6d6d6"></path><path d="M283.3 563.5L300.5 567.5L304.3 475.4Z" fill="#fafafa" stroke="#fafafa"></path><path d="M298.3 76.5L295.5 80.1L340.8 110.5Z" fill="#e5e5e5" stroke="#e5e5e5"></path><path d="M192 414.4L201.8 425.4L241 360.3Z" fill="#efefef" stroke="#efefef"></path><path d="M375.5 49.5L298.3 76.5L340.8 110.5Z" fill="#e5e5e5" stroke="#e5e5e5"></path><path d="M773.3 127.1L650.8 94.5L675 145.6Z" fill="#f5f5f5" stroke="#f5f5f5"></path><path d="M650.8 94.5L648 70.5L624.5 68.5Z" fill="#eaeaea" stroke="#eaeaea"></path><path d="M526.3 0L429 0L478.3 50.5Z" fill="#d1d1d1" stroke="#d1d1d1"></path><path d="M163.8 412.8L192 414.4L149.8 379.3Z" fill="#cccccc" stroke="#cccccc"></path><path d="M201.8 425.4L178.8 441.9L219 456.9Z" fill="#f5f5f5" stroke="#f5f5f5"></path><path d="M283.3 563.5L304.3 475.4L244.3 455.9Z" fill="#efefef" stroke="#efefef"></path><path d="M834.5 398.8L740.5 341.3L731.5 404.4Z" fill="#dbdbdb" stroke="#dbdbdb"></path><path d="M761.3 267.2L773.3 222.6L730.5 212.6Z" fill="#e5e5e5" stroke="#e5e5e5"></path><path d="M730.5 212.6L773.3 127.1L675 145.6Z" fill="#efefef" stroke="#efefef"></path><path d="M789.3 238.7L773.3 222.6L761.3 267.2Z" fill="#efefef" stroke="#efefef"></path><path d="M785.8 286.3L785.3 279.3L761.3 267.2Z" fill="#efefef" stroke="#efefef"></path><path d="M300.5 567.5L349.5 600L362.8 495.9Z" fill="#d1d1d1" stroke="#d1d1d1"></path><path d="M219 456.9L283.3 563.5L244.3 455.9Z" fill="#e0e0e0" stroke="#e0e0e0"></path><path d="M300.5 567.5L287 588.5L349.5 600Z" fill="#ffffff" stroke="#ffffff"></path><path d="M164.5 482.4L283.3 563.5L219 456.9Z" fill="#dbdbdb" stroke="#dbdbdb"></path><path d="M170 236.2L163.8 270.2L225 244.7Z" fill="#d1d1d1" stroke="#d1d1d1"></path><path d="M225 244.7L163.8 270.2L263.3 297.7Z" fill="#eaeaea" stroke="#eaeaea"></path><path d="M265 21.5L228.3 118.1L295.5 80.1Z" fill="#d1d1d1" stroke="#d1d1d1"></path><path d="M295.5 80.1L228.3 118.1L303.3 192.6Z" fill="#f5f5f5" stroke="#f5f5f5"></path><path d="M159.8 225.7L225 244.7L249 228.6Z" fill="#e5e5e5" stroke="#e5e5e5"></path><path d="M526.3 0L587.5 129.6L624.5 68.5Z" fill="#e5e5e5" stroke="#e5e5e5"></path><path d="M478.3 50.5L429 0L420.8 66.1Z" fill="#e5e5e5" stroke="#e5e5e5"></path><path d="M375.5 49.5L326.3 0L298.3 76.5Z" fill="#eaeaea" stroke="#eaeaea"></path><path d="M625.5 0L526.3 0L624.5 68.5Z" fill="#cccccc" stroke="#cccccc"></path><path d="M465.3 608.5L615.8 600L519.5 600Z" fill="#f5f5f5" stroke="#f5f5f5"></path><path d="M519.5 600L615.8 600L557.5 562.5Z" fill="#e0e0e0" stroke="#e0e0e0"></path><path d="M429 0L402 3.5L420.8 66.1Z" fill="#fafafa" stroke="#fafafa"></path><path d="M298.3 76.5L265 21.5L295.5 80.1Z" fill="#cccccc" stroke="#cccccc"></path><path d="M799.8 263.7L789.3 238.7L761.3 267.2Z" fill="#e0e0e0" stroke="#e0e0e0"></path><path d="M773.3 222.6L785.5 187.2L730.5 212.6Z" fill="#cccccc" stroke="#cccccc"></path><path d="M799.8 263.7L761.3 267.2L785.3 279.3Z" fill="#fafafa" stroke="#fafafa"></path><path d="M429 0L395.5 0L402 3.5Z" fill="#e5e5e5" stroke="#e5e5e5"></path><path d="M402 3.5L395.5 0L375.5 49.5Z" fill="#e5e5e5" stroke="#e5e5e5"></path><path d="M163.8 412.8L178.8 441.9L192 414.4Z" fill="#ffffff" stroke="#ffffff"></path><path d="M192 414.4L178.8 441.9L201.8 425.4Z" fill="#e0e0e0" stroke="#e0e0e0"></path><path d="M785.8 286.3L799.8 263.7L785.3 279.3Z" fill="#d1d1d1" stroke="#d1d1d1"></path><path d="M900 349.3L799.8 263.7L785.8 286.3Z" fill="#fafafa" stroke="#fafafa"></path><path d="M615.8 600L638 600L666 537.9Z" fill="#dbdbdb" stroke="#dbdbdb"></path><path d="M793.3 492.5L792.3 453.9L736.3 447.4Z" fill="#f5f5f5" stroke="#f5f5f5"></path><path d="M719 604.5L638 600L615.8 600Z" fill="#f5f5f5" stroke="#f5f5f5"></path><path d="M149.8 379.3L192 414.4L241 360.3Z" fill="#ffffff" stroke="#ffffff"></path><path d="M170 236.2L159.8 225.7L163.8 270.2Z" fill="#e0e0e0" stroke="#e0e0e0"></path><path d="M163.8 270.2L149.8 379.3L241 360.3Z" fill="#fafafa" stroke="#fafafa"></path><path d="M185.8 126.1L159.8 225.7L249 228.6Z" fill="#f5f5f5" stroke="#f5f5f5"></path><path d="M638 600L674.8 580.5L666 537.9Z" fill="#dbdbdb" stroke="#dbdbdb"></path><path d="M816.8 230.2L773.3 222.6L789.3 238.7Z" fill="#eaeaea" stroke="#eaeaea"></path><path d="M816.8 230.2L785.5 187.2L773.3 222.6Z" fill="#eaeaea" stroke="#eaeaea"></path><path d="M101.3 287.3L149.8 379.3L163.8 270.2Z" fill="#dbdbdb" stroke="#dbdbdb"></path><path d="M251.3 600L287 588.5L283.3 563.5Z" fill="#fafafa" stroke="#fafafa"></path><path d="M283.3 563.5L287 588.5L300.5 567.5Z" fill="#ffffff" stroke="#ffffff"></path><path d="M395.5 0L336.8 0L375.5 49.5Z" fill="#efefef" stroke="#efefef"></path><path d="M793.3 492.5L736.3 447.4L666 537.9Z" fill="#d1d1d1" stroke="#d1d1d1"></path><path d="M736.3 447.4L792.3 453.9L731.5 404.4Z" fill="#efefef" stroke="#efefef"></path><path d="M164 54.1L185.8 126.1L228.3 118.1Z" fill="#e5e5e5" stroke="#e5e5e5"></path><path d="M228.3 118.1L185.8 126.1L249 228.6Z" fill="#f5f5f5" stroke="#f5f5f5"></path><path d="M648 70.5L625.5 0L624.5 68.5Z" fill="#f5f5f5" stroke="#f5f5f5"></path><path d="M683.8 0L625.5 0L648 70.5Z" fill="#f5f5f5" stroke="#f5f5f5"></path><path d="M336.8 0L326.3 0L375.5 49.5Z" fill="#fafafa" stroke="#fafafa"></path><path d="M799.8 263.7L816.8 230.2L789.3 238.7Z" fill="#d1d1d1" stroke="#d1d1d1"></path><path d="M900 250.7L816.8 230.2L799.8 263.7Z" fill="#fafafa" stroke="#fafafa"></path><path d="M815.8 169.6L773.3 127.1L785.5 187.2Z" fill="#fafafa" stroke="#fafafa"></path><path d="M785.5 187.2L773.3 127.1L730.5 212.6Z" fill="#fafafa" stroke="#fafafa"></path><path d="M118.3 474.4L164.5 482.4L178.8 441.9Z" fill="#f5f5f5" stroke="#f5f5f5"></path><path d="M178.8 441.9L164.5 482.4L219 456.9Z" fill="#efefef" stroke="#efefef"></path><path d="M118.3 474.4L178.8 441.9L163.8 412.8Z" fill="#ffffff" stroke="#ffffff"></path><path d="M326.3 0L265 21.5L298.3 76.5Z" fill="#e5e5e5" stroke="#e5e5e5"></path><path d="M719 604.5L793.3 492.5L666 537.9Z" fill="#efefef" stroke="#efefef"></path><path d="M792.3 453.9L834.5 398.8L731.5 404.4Z" fill="#f5f5f5" stroke="#f5f5f5"></path><path d="M638 600L702.3 600L674.8 580.5Z" fill="#ffffff" stroke="#ffffff"></path><path d="M674.8 580.5L702.3 600L666 537.9Z" fill="#d1d1d1" stroke="#d1d1d1"></path><path d="M719 604.5L702.3 600L638 600Z" fill="#e0e0e0" stroke="#e0e0e0"></path><path d="M222.8 604.5L251.3 600L283.3 563.5Z" fill="#d1d1d1" stroke="#d1d1d1"></path><path d="M287 588.5L251.3 600L349.5 600Z" fill="#d6d6d6" stroke="#d6d6d6"></path><path d="M349.5 600L222.8 604.5L465.3 608.5Z" fill="#e5e5e5" stroke="#e5e5e5"></path><path d="M845.8 402.4L834.5 398.8L792.3 453.9Z" fill="#cccccc" stroke="#cccccc"></path><path d="M834.5 95.1L815.8 169.6L876.8 143.1Z" fill="#d1d1d1" stroke="#d1d1d1"></path><path d="M816.8 230.2L815.8 169.6L785.5 187.2Z" fill="#e5e5e5" stroke="#e5e5e5"></path><path d="M834.5 95.1L782.3 103.5L773.3 127.1Z" fill="#dbdbdb" stroke="#dbdbdb"></path><path d="M773.3 127.1L782.3 103.5L650.8 94.5Z" fill="#e0e0e0" stroke="#e0e0e0"></path><path d="M326.3 0L272 0L265 21.5Z" fill="#d6d6d6" stroke="#d6d6d6"></path><path d="M164 54.1L134.5 99.6L185.8 126.1Z" fill="#d1d1d1" stroke="#d1d1d1"></path><path d="M721 0L683.8 0L648 70.5Z" fill="#d6d6d6" stroke="#d6d6d6"></path><path d="M106.8 184.6L101.3 287.3L159.8 225.7Z" fill="#f5f5f5" stroke="#f5f5f5"></path><path d="M159.8 225.7L101.3 287.3L163.8 270.2Z" fill="#efefef" stroke="#efefef"></path><path d="M70.5 402.8L118.3 474.4L163.8 412.8Z" fill="#eaeaea" stroke="#eaeaea"></path><path d="M465.3 608.5L719 604.5L615.8 600Z" fill="#fafafa" stroke="#fafafa"></path><path d="M702.3 600L719 604.5L666 537.9Z" fill="#f5f5f5" stroke="#f5f5f5"></path><path d="M900 442.4L845.8 402.4L792.3 453.9Z" fill="#eaeaea" stroke="#eaeaea"></path><path d="M834.5 398.8L876.8 374.8L785.8 286.3Z" fill="#d1d1d1" stroke="#d1d1d1"></path><path d="M198 600L222.8 604.5L283.3 563.5Z" fill="#ffffff" stroke="#ffffff"></path><path d="M251.3 600L222.8 604.5L349.5 600Z" fill="#e5e5e5" stroke="#e5e5e5"></path><path d="M185.8 126.1L106.8 184.6L159.8 225.7Z" fill="#eaeaea" stroke="#eaeaea"></path><path d="M134.5 99.6L106.8 184.6L185.8 126.1Z" fill="#dbdbdb" stroke="#dbdbdb"></path><path d="M70.5 402.8L163.8 412.8L149.8 379.3Z" fill="#d6d6d6" stroke="#d6d6d6"></path><path d="M164.5 482.4L198 600L283.3 563.5Z" fill="#d1d1d1" stroke="#d1d1d1"></path><path d="M782.3 103.5L721 0L648 70.5Z" fill="#fafafa" stroke="#fafafa"></path><path d="M147.5 549.9L198 600L164.5 482.4Z" fill="#e5e5e5" stroke="#e5e5e5"></path><path d="M719 604.5L819.5 525.9L793.3 492.5Z" fill="#ffffff" stroke="#ffffff"></path><path d="M793.3 492.5L836.8 513.9L792.3 453.9Z" fill="#fafafa" stroke="#fafafa"></path><path d="M164 54.1L228.3 118.1L265 21.5Z" fill="#e5e5e5" stroke="#e5e5e5"></path><path d="M900 372.8L876.8 374.8L900 432.9Z" fill="#e5e5e5" stroke="#e5e5e5"></path><path d="M845.8 402.4L876.8 374.8L834.5 398.8Z" fill="#d1d1d1" stroke="#d1d1d1"></path><path d="M118.3 474.4L147.5 549.9L164.5 482.4Z" fill="#dbdbdb" stroke="#dbdbdb"></path><path d="M183.8 0L164 54.1L265 21.5Z" fill="#e5e5e5" stroke="#e5e5e5"></path><path d="M815.5 57.5L737.3 0L782.3 103.5Z" fill="#fafafa" stroke="#fafafa"></path><path d="M782.3 103.5L737.3 0L721 0Z" fill="#eaeaea" stroke="#eaeaea"></path><path d="M826.8 587.5L836.8 513.9L819.5 525.9Z" fill="#cccccc" stroke="#cccccc"></path><path d="M819.5 525.9L836.8 513.9L793.3 492.5Z" fill="#d6d6d6" stroke="#d6d6d6"></path><path d="M37.3 359.8L70.5 402.8L101.3 287.3Z" fill="#e5e5e5" stroke="#e5e5e5"></path><path d="M101.3 287.3L70.5 402.8L149.8 379.3Z" fill="#e5e5e5" stroke="#e5e5e5"></path><path d="M118.3 474.4L90.5 541.5L147.5 549.9Z" fill="#cccccc" stroke="#cccccc"></path><path d="M876.8 143.1L815.8 169.6L900 155.2Z" fill="#ffffff" stroke="#ffffff"></path><path d="M815.8 169.6L834.5 95.1L773.3 127.1Z" fill="#efefef" stroke="#efefef"></path><path d="M156.5 0L144.5 54.1L164 54.1Z" fill="#e5e5e5" stroke="#e5e5e5"></path><path d="M164 54.1L144.5 54.1L134.5 99.6Z" fill="#efefef" stroke="#efefef"></path><path d="M54.5 253.7L101.3 287.3L106.8 184.6Z" fill="#dbdbdb" stroke="#dbdbdb"></path><path d="M900 372.8L900 349.3L876.8 374.8Z" fill="#d1d1d1" stroke="#d1d1d1"></path><path d="M876.8 374.8L900 349.3L785.8 286.3Z" fill="#dbdbdb" stroke="#dbdbdb"></path><path d="M834.5 95.1L815.5 57.5L782.3 103.5Z" fill="#ffffff" stroke="#ffffff"></path><path d="M54.5 253.7L106.8 184.6L48.5 170.2Z" fill="#e0e0e0" stroke="#e0e0e0"></path><path d="M54.5 253.7L53.5 266.3L101.3 287.3Z" fill="#f5f5f5" stroke="#f5f5f5"></path><path d="M128.8 600L160.5 600L147.5 549.9Z" fill="#fafafa" stroke="#fafafa"></path><path d="M147.5 549.9L160.5 600L198 600Z" fill="#d6d6d6" stroke="#d6d6d6"></path><path d="M198 600L160.5 600L222.8 604.5Z" fill="#f5f5f5" stroke="#f5f5f5"></path><path d="M48.5 170.2L106.8 184.6L69.3 113.6Z" fill="#d6d6d6" stroke="#d6d6d6"></path><path d="M900 432.9L876.8 374.8L845.8 402.4Z" fill="#ffffff" stroke="#ffffff"></path><path d="M900 349.3L900 250.7L799.8 263.7Z" fill="#f5f5f5" stroke="#f5f5f5"></path><path d="M272 0L183.8 0L265 21.5Z" fill="#d1d1d1" stroke="#d1d1d1"></path><path d="M719 604.5L801.5 600L819.5 525.9Z" fill="#d1d1d1" stroke="#d1d1d1"></path><path d="M900 442.4L900 432.9L845.8 402.4Z" fill="#d1d1d1" stroke="#d1d1d1"></path><path d="M801.5 600L815.5 585.5L819.5 525.9Z" fill="#dbdbdb" stroke="#dbdbdb"></path><path d="M900 155.2L815.8 169.6L816.8 230.2Z" fill="#cccccc" stroke="#cccccc"></path><path d="M834.5 95.1L850.8 31.5L815.5 57.5Z" fill="#e5e5e5" stroke="#e5e5e5"></path><path d="M900 442.4L792.3 453.9L836.8 513.9Z" fill="#efefef" stroke="#efefef"></path><path d="M828.5 0L785.8 0L815.5 57.5Z" fill="#d6d6d6" stroke="#d6d6d6"></path><path d="M815.5 57.5L785.8 0L737.3 0Z" fill="#d6d6d6" stroke="#d6d6d6"></path><path d="M900 528.5L900 442.4L836.8 513.9Z" fill="#d6d6d6" stroke="#d6d6d6"></path><path d="M53.5 266.3L37.3 359.8L101.3 287.3Z" fill="#eaeaea" stroke="#eaeaea"></path><path d="M64.3 501.9L90.5 541.5L118.3 474.4Z" fill="#ffffff" stroke="#ffffff"></path><path d="M20.3 265.7L37.3 359.8L53.5 266.3Z" fill="#cccccc" stroke="#cccccc"></path><path d="M801.5 600L826.8 587.5L815.5 585.5Z" fill="#ffffff" stroke="#ffffff"></path><path d="M815.5 585.5L826.8 587.5L819.5 525.9Z" fill="#d1d1d1" stroke="#d1d1d1"></path><path d="M272 0L167.8 -10.5L183.8 0Z" fill="#f5f5f5" stroke="#f5f5f5"></path><path d="M183.8 0L156.5 0L164 54.1Z" fill="#ffffff" stroke="#ffffff"></path><path d="M69.3 113.6L106.8 184.6L134.5 99.6Z" fill="#cccccc" stroke="#cccccc"></path><path d="M326.3 0L167.8 -10.5L272 0Z" fill="#e5e5e5" stroke="#e5e5e5"></path><path d="M336.8 0L167.8 -10.5L326.3 0Z" fill="#cccccc" stroke="#cccccc"></path><path d="M395.5 0L167.8 -10.5L336.8 0Z" fill="#eaeaea" stroke="#eaeaea"></path><path d="M429 0L167.8 -10.5L395.5 0Z" fill="#fafafa" stroke="#fafafa"></path><path d="M526.3 0L167.8 -10.5L429 0Z" fill="#d6d6d6" stroke="#d6d6d6"></path><path d="M625.5 0L167.8 -10.5L526.3 0Z" fill="#eaeaea" stroke="#eaeaea"></path><path d="M683.8 0L167.8 -10.5L625.5 0Z" fill="#efefef" stroke="#efefef"></path><path d="M721 0L167.8 -10.5L683.8 0Z" fill="#fafafa" stroke="#fafafa"></path><path d="M737.3 0L167.8 -10.5L721 0Z" fill="#cccccc" stroke="#cccccc"></path><path d="M785.8 0L167.8 -10.5L737.3 0Z" fill="#d6d6d6" stroke="#d6d6d6"></path><path d="M64.3 501.9L118.3 474.4L70.5 402.8Z" fill="#d1d1d1" stroke="#d1d1d1"></path><path d="M167.8 -10.5L156.5 0L183.8 0Z" fill="#f5f5f5" stroke="#f5f5f5"></path><path d="M90.5 541.5L128.8 600L147.5 549.9Z" fill="#e5e5e5" stroke="#e5e5e5"></path><path d="M160.5 600L128.8 600L222.8 604.5Z" fill="#d6d6d6" stroke="#d6d6d6"></path><path d="M900 250.7L900 155.2L816.8 230.2Z" fill="#f5f5f5" stroke="#f5f5f5"></path><path d="M900 97.6L850.8 31.5L834.5 95.1Z" fill="#d6d6d6" stroke="#d6d6d6"></path><path d="M69.3 113.6L134.5 99.6L144.5 54.1Z" fill="#cccccc" stroke="#cccccc"></path><path d="M54.5 253.7L20.3 265.7L53.5 266.3Z" fill="#efefef" stroke="#efefef"></path><path d="M900 155.2L900 153.1L876.8 143.1Z" fill="#fafafa" stroke="#fafafa"></path><path d="M61.3 504.5L64.3 501.9L0 488.5Z" fill="#f5f5f5" stroke="#f5f5f5"></path><path d="M90.5 541.5L26.3 600L128.8 600Z" fill="#cccccc" stroke="#cccccc"></path><path d="M83.3 0L69.3 113.6L144.5 54.1Z" fill="#eaeaea" stroke="#eaeaea"></path><path d="M0 427.9L64.3 501.9L70.5 402.8Z" fill="#fafafa" stroke="#fafafa"></path><path d="M64.3 501.9L61.3 504.5L90.5 541.5Z" fill="#ffffff" stroke="#ffffff"></path><path d="M0 233.7L20.3 265.7L54.5 253.7Z" fill="#d6d6d6" stroke="#d6d6d6"></path><path d="M37.3 359.8L0 392.8L70.5 402.8Z" fill="#f5f5f5" stroke="#f5f5f5"></path><path d="M167.8 -10.5L136.5 -0.5L156.5 0Z" fill="#d1d1d1" stroke="#d1d1d1"></path><path d="M156.5 0L136.5 -0.5L144.5 54.1Z" fill="#e0e0e0" stroke="#e0e0e0"></path><path d="M900 110.5L834.5 95.1L876.8 143.1Z" fill="#d6d6d6" stroke="#d6d6d6"></path><path d="M900 153.1L900 110.5L876.8 143.1Z" fill="#e5e5e5" stroke="#e5e5e5"></path><path d="M850.8 31.5L828.5 0L815.5 57.5Z" fill="#fafafa" stroke="#fafafa"></path><path d="M785.8 0L828.5 0L167.8 -10.5Z" fill="#fafafa" stroke="#fafafa"></path><path d="M826.8 587.5L900 528.5L836.8 513.9Z" fill="#d1d1d1" stroke="#d1d1d1"></path><path d="M900 110.5L900 97.6L834.5 95.1Z" fill="#f5f5f5" stroke="#f5f5f5"></path><path d="M850.8 31.5L900 0L828.5 0Z" fill="#fafafa" stroke="#fafafa"></path><path d="M0 233.7L54.5 253.7L0 226.6Z" fill="#ffffff" stroke="#ffffff"></path><path d="M0 233.7L0 261.3L20.3 265.7Z" fill="#e0e0e0" stroke="#e0e0e0"></path><path d="M20.3 265.7L0 261.3L37.3 359.8Z" fill="#eaeaea" stroke="#eaeaea"></path><path d="M0 261.3L0 392.8L37.3 359.8Z" fill="#cccccc" stroke="#cccccc"></path><path d="M0 226.6L54.5 253.7L48.5 170.2Z" fill="#efefef" stroke="#efefef"></path><path d="M-9.7 219.2L0 226.6L0 164.2Z" fill="#ffffff" stroke="#ffffff"></path><path d="M0 226.6L48.5 170.2L0 164.2Z" fill="#dbdbdb" stroke="#dbdbdb"></path><path d="M0 392.8L0 411.4L70.5 402.8Z" fill="#e0e0e0" stroke="#e0e0e0"></path><path d="M0 411.4L0 427.9L70.5 402.8Z" fill="#e0e0e0" stroke="#e0e0e0"></path><path d="M61.3 504.5L26.3 600L90.5 541.5Z" fill="#eaeaea" stroke="#eaeaea"></path><path d="M0 164.2L48.5 170.2L69.3 113.6Z" fill="#efefef" stroke="#efefef"></path><path d="M0 226.6L-9.7 219.2L0 233.7Z" fill="#efefef" stroke="#efefef"></path><path d="M0 233.7L-9.7 219.2L0 261.3Z" fill="#fafafa" stroke="#fafafa"></path><path d="M0 261.3L-9.7 219.2L0 392.8Z" fill="#ffffff" stroke="#ffffff"></path><path d="M0 392.8L-9.7 219.2L0 411.4Z" fill="#e0e0e0" stroke="#e0e0e0"></path><path d="M0 411.4L-9.7 219.2L0 427.9Z" fill="#e5e5e5" stroke="#e5e5e5"></path><path d="M801.5 600L883.8 600L826.8 587.5Z" fill="#ffffff" stroke="#ffffff"></path><path d="M826.8 587.5L883.8 600L900 528.5Z" fill="#e5e5e5" stroke="#e5e5e5"></path><path d="M719 604.5L883.8 600L801.5 600Z" fill="#ffffff" stroke="#ffffff"></path><path d="M0 73.1L0 164.2L69.3 113.6Z" fill="#e5e5e5" stroke="#e5e5e5"></path><path d="M167.8 -10.5L83.3 0L136.5 -0.5Z" fill="#ffffff" stroke="#ffffff"></path><path d="M136.5 -0.5L83.3 0L144.5 54.1Z" fill="#ffffff" stroke="#ffffff"></path><path d="M-9.7 219.2L0 488.5L0 427.9Z" fill="#f5f5f5" stroke="#f5f5f5"></path><path d="M0 427.9L0 488.5L64.3 501.9Z" fill="#cccccc" stroke="#cccccc"></path><path d="M719 604.5L900 600L883.8 600Z" fill="#d6d6d6" stroke="#d6d6d6"></path><path d="M883.8 600L900 600L900 528.5Z" fill="#fafafa" stroke="#fafafa"></path><path d="M83.3 0L24.3 61.1L69.3 113.6Z" fill="#cccccc" stroke="#cccccc"></path><path d="M900 97.6L900 0L850.8 31.5Z" fill="#e5e5e5" stroke="#e5e5e5"></path><path d="M828.5 0L900 0L167.8 -10.5Z" fill="#efefef" stroke="#efefef"></path><path d="M0 488.5L26.3 600L61.3 504.5Z" fill="#fafafa" stroke="#fafafa"></path><path d="M128.8 600L26.3 600L222.8 604.5Z" fill="#d1d1d1" stroke="#d1d1d1"></path><path d="M0 57.5L0 73.1L24.3 61.1Z" fill="#cccccc" stroke="#cccccc"></path><path d="M24.3 61.1L0 73.1L69.3 113.6Z" fill="#e0e0e0" stroke="#e0e0e0"></path><path d="M0 164.2L0 73.1L-9.7 219.2Z" fill="#e5e5e5" stroke="#e5e5e5"></path><path d="M0 0L0 57.5L24.3 61.1Z" fill="#f5f5f5" stroke="#f5f5f5"></path><path d="M0 73.1L0 57.5L-9.7 219.2Z" fill="#d1d1d1" stroke="#d1d1d1"></path><path d="M167.8 -10.5L26.3 -8.5L83.3 0Z" fill="#fafafa" stroke="#fafafa"></path><path d="M83.3 0L26.3 -8.5L24.3 61.1Z" fill="#f5f5f5" stroke="#f5f5f5"></path><path d="M-9.7 219.2L0 600L0 488.5Z" fill="#efefef" stroke="#efefef"></path><path d="M0 488.5L0 600L26.3 600Z" fill="#d1d1d1" stroke="#d1d1d1"></path><path d="M26.3 600L0 600L222.8 604.5Z" fill="#d6d6d6" stroke="#d6d6d6"></path><path d="M26.3 -8.5L0 0L24.3 61.1Z" fill="#eaeaea" stroke="#eaeaea"></path><path d="M0 57.5L0 0L-9.7 219.2Z" fill="#d1d1d1" stroke="#d1d1d1"></path></g></svg>